<svg width="18" height="18" viewBox="0 0 18 18" fill="none" xmlns="http://www.w3.org/2000/svg">
<path d="M4.22543 17.5118C2.17172 17.2829 0.519147 15.6303 0.299318 13.5756C0.137038 12.0588 0 10.5016 0 8.91394C0 7.32633 0.137038 5.76907 0.299318 4.25227C0.519147 2.19757 2.17172 0.544985 4.22543 0.316066C5.75085 0.146035 7.31708 0 8.91394 0C10.5108 0 12.077 0.146035 13.6024 0.316066C15.6562 0.544985 17.3088 2.19757 17.5286 4.25227C17.6908 5.76907 17.8278 7.32633 17.8278 8.91394C17.8278 10.5016 17.6908 12.0588 17.5286 13.5756C17.3088 15.6303 15.6562 17.2829 13.6024 17.5118C13.0097 17.5779 12.4107 17.6403 11.8062 17.6921C11.3992 17.7268 11.0533 17.4034 11.0533 16.9949V13.1927H13.2003C13.5899 13.1927 13.9058 12.8768 13.9058 12.4872V10.3325C13.9058 9.94291 13.5899 9.62706 13.2003 9.62706H11.0533V8.20083C11.0533 7.41314 11.6918 6.7746 12.4795 6.7746H13.2003C13.5899 6.7746 13.9058 6.45876 13.9058 6.06915V4.63525C13.9058 3.84757 13.2672 3.20901 12.4795 3.20901H11.7664C9.40334 3.20901 7.48772 5.12465 7.48772 7.48772V9.62706H5.3407C4.95109 9.62706 4.63525 9.94291 4.63525 10.3325V12.4872C4.63525 12.8768 4.95109 13.1927 5.3407 13.1927H7.48772V17.0514C7.48772 17.4543 7.15058 17.776 6.7485 17.7482C5.8965 17.6897 5.05494 17.6043 4.22543 17.5118Z" fill="white"/>
</svg>
