<svg width="18" height="18" viewBox="0 0 18 18" fill="none" xmlns="http://www.w3.org/2000/svg">
<path d="M1.27527 4.19281C1.27527 2.33185 2.78388 0.823242 4.64485 0.823242H13.6304C15.4914 0.823242 17 2.33185 17 4.19281V13.1783C17 15.0392 15.4914 16.5479 13.6304 16.5479H4.64485C2.78388 16.5479 1.27527 15.0392 1.27527 13.1783V4.19281Z" stroke="white" stroke-width="1.40739" stroke-linecap="round" stroke-linejoin="round"/>
<path d="M13.6715 4.30412C13.4905 4.30412 13.3439 4.15745 13.3439 3.97652C13.3439 3.7956 13.4905 3.64893 13.6715 3.64893" stroke="white" stroke-width="1.40739" stroke-linecap="round" stroke-linejoin="round"/>
<path d="M13.6714 4.30412C13.8523 4.30412 13.999 4.15745 13.999 3.97652C13.999 3.7956 13.8523 3.64893 13.6714 3.64893" stroke="white" stroke-width="1.40739" stroke-linecap="round" stroke-linejoin="round"/>
<path d="M5.79608 8.68523C5.79608 9.57145 6.14813 10.4214 6.77478 11.048C7.40143 11.6747 8.25135 12.0267 9.13757 12.0267C10.0238 12.0267 10.8737 11.6747 11.5004 11.048C12.127 10.4214 12.479 9.57145 12.479 8.68523C12.479 7.79902 12.127 6.9491 11.5004 6.32245C10.8737 5.6958 10.0238 5.34375 9.13757 5.34375C8.25135 5.34375 7.40143 5.6958 6.77478 6.32245C6.14813 6.9491 5.79608 7.79902 5.79608 8.68523Z" stroke="white" stroke-width="1.40739" stroke-linecap="round" stroke-linejoin="round"/>
</svg>
