<svg width="20" height="16" viewBox="0 0 20 16" fill="none" xmlns="http://www.w3.org/2000/svg">
<path d="M1.4375 15.9173C1.05417 15.9173 0.71875 15.7736 0.43125 15.4861C0.14375 15.1986 0 14.8632 0 14.4798V2.02148C0 1.63815 0.14375 1.30273 0.43125 1.01523C0.71875 0.727734 1.05417 0.583984 1.4375 0.583984H17.7292C18.1125 0.583984 18.4479 0.727734 18.7354 1.01523C19.0229 1.30273 19.1667 1.63815 19.1667 2.02148V14.4798C19.1667 14.8632 19.0229 15.1986 18.7354 15.4861C18.4479 15.7736 18.1125 15.9173 17.7292 15.9173H1.4375ZM17.7292 3.33919L9.96667 8.41836C9.90279 8.45032 9.8429 8.47826 9.78698 8.50221C9.73106 8.52617 9.66321 8.53815 9.58333 8.53815C9.50346 8.53815 9.43561 8.52617 9.37969 8.50221C9.32377 8.47826 9.26387 8.45032 9.2 8.41836L1.4375 3.33919V14.4798H17.7292V3.33919ZM9.58333 7.2444L17.6333 2.02148H1.55729L9.58333 7.2444ZM1.4375 3.5069V2.56486V2.58235V2.02148V2.57253V2.55072V3.5069Z" fill="white"/>
</svg>
