<svg width="20" height="20" viewBox="0 0 20 20" fill="none" xmlns="http://www.w3.org/2000/svg">
<path d="M12.1638 17.8983L12.1732 17.9038C13.003 18.4321 13.9882 18.6616 14.966 18.5543C15.9438 18.4471 16.8558 18.0095 17.5513 17.314L18.156 16.7093C18.4261 16.4389 18.5778 16.0723 18.5778 15.6901C18.5778 15.3079 18.4261 14.9414 18.156 14.671L15.6084 12.1249C15.338 11.8548 14.9714 11.7031 14.5892 11.7031C14.2071 11.7031 13.8405 11.8548 13.5701 12.1249C13.4364 12.2588 13.2776 12.365 13.1028 12.4375C12.928 12.5099 12.7406 12.5472 12.5513 12.5472C12.3621 12.5472 12.1747 12.5099 11.9999 12.4375C11.8251 12.365 11.6663 12.2588 11.5326 12.1249L7.45603 8.04755C7.18596 7.77714 7.03426 7.41059 7.03426 7.02841C7.03426 6.64623 7.18596 6.27968 7.45603 6.00927C7.58992 5.87554 7.69614 5.71674 7.76861 5.54193C7.84108 5.36713 7.87838 5.17975 7.87838 4.99052C7.87838 4.80128 7.84108 4.61391 7.76861 4.4391C7.69614 4.2643 7.58992 4.10549 7.45603 3.97177L4.90915 1.42177C4.63874 1.1517 4.27219 1 3.89001 1C3.50783 1 3.14128 1.1517 2.87087 1.42177L2.26618 2.02645C1.57074 2.72206 1.13323 3.63399 1.02585 4.61174C0.918473 5.58948 1.14765 6.57462 1.67556 7.40458L1.68181 7.41395C4.47354 11.5466 8.03179 15.1057 12.1638 17.8983Z" stroke="white" stroke-width="1.25" stroke-linecap="round" stroke-linejoin="round"/>
</svg>
