<svg width="14" height="20" viewBox="0 0 14 20" fill="none" xmlns="http://www.w3.org/2000/svg">
<path d="M6.99996 14.4708C8.74092 13.1451 10.0546 11.7915 10.9411 10.4099C11.8276 9.02831 12.2708 7.79446 12.2708 6.70833C12.2708 5.15904 11.7796 3.89323 10.7974 2.91094C9.81506 1.92865 8.54925 1.4375 6.99996 1.4375C5.45067 1.4375 4.18486 1.92865 3.20256 2.91094C2.22027 3.89323 1.72913 5.15904 1.72913 6.70833C1.72913 7.77846 2.17236 9.00436 3.05881 10.3859C3.94527 11.7675 5.259 13.1292 6.99996 14.4708ZM6.99996 15.9563C6.85621 15.9563 6.71246 15.9323 6.56871 15.8844C6.42496 15.8365 6.28921 15.7646 6.16142 15.6687C4.16487 14.1195 2.68746 12.5821 1.72913 11.0568C0.770793 9.53144 0.291626 8.08196 0.291626 6.70833C0.291626 4.74375 0.91852 3.13456 2.17236 1.88073C3.42619 0.626908 5.03538 0 6.99996 0C8.96454 0 10.5737 0.626908 11.8276 1.88073C13.0814 3.13456 13.7083 4.74375 13.7083 6.70833C13.7083 8.08196 13.2291 9.53144 12.2708 11.0568C11.3125 12.5821 9.83505 14.1195 7.8385 15.6687C7.71071 15.7646 7.57496 15.8365 7.43121 15.8844C7.28746 15.9323 7.14371 15.9563 6.99996 15.9563ZM6.976 8.625C7.51904 8.625 7.97827 8.43731 8.35361 8.06198C8.72894 7.68665 8.91663 7.23542 8.91663 6.70833C8.91663 6.18125 8.72894 5.73002 8.35361 5.35469C7.97827 4.97936 7.51904 4.79167 6.976 4.79167C6.44892 4.79167 6.00171 4.97936 5.63433 5.35469C5.26696 5.73002 5.08329 6.18125 5.08329 6.70833C5.08329 7.23542 5.26696 7.68665 5.63433 8.06198C6.00171 8.43731 6.44892 8.625 6.976 8.625ZM1.01038 19.1667C0.802753 19.1667 0.63102 19.0988 0.495272 18.963C0.359524 18.8273 0.291626 18.6555 0.291626 18.4479C0.291626 18.2403 0.359524 18.0686 0.495272 17.9328C0.63102 17.7971 0.802753 17.7292 1.01038 17.7292H12.9895C13.1972 17.7292 13.3689 17.7971 13.5046 17.9328C13.6404 18.0686 13.7083 18.2403 13.7083 18.4479C13.7083 18.6555 13.6404 18.8273 13.5046 18.963C13.3689 19.0988 13.1972 19.1667 12.9895 19.1667H1.01038Z" fill="white"/>
</svg>
