<svg width="283" height="252" viewBox="0 0 283 252" fill="none" xmlns="http://www.w3.org/2000/svg">
<path d="M113.122 216.671C175.598 236.163 238.912 211.361 254.539 161.275C270.165 111.189 232.186 54.7853 169.711 35.2933C107.235 15.8014 43.9207 40.6027 28.2942 90.6887C12.6677 140.775 50.6465 197.179 113.122 216.671Z" fill="url(#paint0_radial_250_17)" style="mix-blend-mode:lighten"/>
<g filter="url(#filter0_i_250_17)">
<path d="M81.8874 140.512C80.2493 145.762 83.2048 151.398 88.4552 153.036L159.67 175.255C164.92 176.893 170.556 173.937 172.194 168.687L176.423 155.131L86.1167 126.956L81.8874 140.512Z" fill="url(#paint1_linear_250_17)"/>
</g>
<path d="M194.695 62.9915L123.481 40.7731C118.23 39.135 112.594 42.0906 110.956 47.341L86.1166 126.956L176.423 155.131L201.263 75.5161C202.931 70.1702 199.945 64.6296 194.695 62.9915Z" fill="url(#paint2_linear_250_17)"/>
<g filter="url(#filter1_d_250_17)">
<path d="M111.031 146.148L93.9439 140.816C92.512 140.37 91.8193 138.896 92.2362 137.56C92.683 136.128 94.1561 135.435 95.4925 135.852L112.58 141.184C114.012 141.631 114.705 143.104 114.288 144.441C113.966 145.807 112.463 146.595 111.031 146.148Z" fill="white"/>
</g>
<g filter="url(#filter2_d_250_17)">
<path d="M161.677 167.815L91.1304 145.805C90.4621 145.596 90.0681 144.845 90.2766 144.177C90.485 143.508 91.2365 143.114 91.9047 143.323L162.451 165.333C163.119 165.541 163.513 166.293 163.305 166.961C163.096 167.629 162.345 168.023 161.677 167.815Z" fill="#F4F7FC"/>
</g>
<g filter="url(#filter3_d_250_17)">
<path d="M168.149 134.329C167.405 136.715 164.9 138.029 162.514 137.284C160.127 136.539 158.814 134.034 159.558 131.647C160.302 129.261 162.807 127.947 165.193 128.692C167.484 129.407 168.894 131.942 168.149 134.329ZM104.764 114.547C104.02 116.933 105.334 119.439 107.72 120.183C110.107 120.928 112.611 119.615 113.356 117.228C114.1 114.841 112.786 112.336 110.4 111.592C108.013 110.847 105.509 112.16 104.764 114.547ZM185.21 79.6276C185.955 77.241 184.641 74.7359 182.254 73.9911C179.868 73.2463 177.363 74.5597 176.619 76.9463C175.874 79.3329 177.188 81.8381 179.575 82.5829C181.866 83.2979 184.466 82.0142 185.21 79.6276ZM159.687 94.2895C159.799 91.9151 159.315 89.7735 159.046 88.9563C158.514 87.6381 158.252 87.1371 155.388 86.2433L152.333 85.29L145.276 107.915C144.026 111.925 144.414 112.36 148.59 114.082L148.025 115.896L132.083 110.921L132.649 109.107C136.873 110.006 137.344 109.839 138.594 105.83L145.621 83.3L142.757 82.4062C140.085 81.5721 139.172 81.8111 137.86 82.6587C136.894 83.4048 135.69 84.9146 134.426 86.6153L132.613 86.0493C134.096 82.6363 135.544 79.0026 136.354 76.7412L137.786 77.1881C138.192 78.572 138.735 78.8462 140.167 79.2931L159.354 85.2813C160.691 85.6984 161.448 85.6205 162.509 84.9042L163.941 85.3511C163.412 87.3856 162.292 91.6457 161.501 94.8556L159.687 94.2895ZM124.781 65.4823C127.168 66.2271 129.672 64.9136 130.417 62.527C131.161 60.1404 129.847 57.6353 127.461 56.8905C125.074 56.1457 122.57 57.4591 121.825 59.8457C121.081 62.2323 122.395 64.7375 124.781 65.4823ZM168.488 76.8182C168.679 76.8778 168.804 76.8121 168.9 76.8419C168.995 76.8717 169.216 76.8358 169.341 76.7702C169.466 76.7045 169.592 76.6388 169.812 76.6029C170.313 76.3402 170.778 75.8568 170.957 75.2841C171.017 75.0931 171.046 74.9977 171.106 74.8067C171.136 74.7113 171.1 74.4905 171.13 74.3951C171.159 74.2996 171.123 74.0789 171.058 73.9536C170.992 73.8284 170.926 73.7031 170.861 73.5779C170.795 73.4526 170.729 73.3273 170.568 73.1723C170.502 73.047 170.341 72.892 170.246 72.8622C170.15 72.8324 169.989 72.6774 169.894 72.6476C169.637 72.4627 169.351 72.3734 169.035 72.3794C168.844 72.3199 168.719 72.3855 168.623 72.3558C168.402 72.3916 168.307 72.3618 168.182 72.4275C168.056 72.4932 167.931 72.5589 167.711 72.5947C167.585 72.6604 167.46 72.7261 167.335 72.7917C167.21 72.8574 167.055 73.0186 167.025 73.114C166.995 73.2095 166.84 73.3706 166.81 73.4661C166.751 73.657 166.721 73.7525 166.661 73.9434C166.483 74.5162 166.495 75.1486 166.853 75.6794C166.919 75.8046 166.985 75.9299 167.146 76.085C167.211 76.2102 167.277 76.3354 167.468 76.395C167.534 76.5203 167.725 76.5799 167.82 76.6097C167.915 76.6395 168.106 76.699 168.297 76.7586C168.202 76.7288 168.393 76.7884 168.488 76.8182ZM158.959 71.4348C159.346 70.1938 160.598 69.537 161.839 69.9243C163.08 70.3116 163.737 71.5642 163.35 72.8052C162.963 74.0463 161.615 74.6732 160.47 74.3157C159.229 73.9284 158.572 72.6758 158.959 71.4348ZM151.322 69.0514C151.709 67.8104 152.962 67.1537 154.203 67.541C155.444 67.9283 156.1 69.1808 155.713 70.4219C155.326 71.6629 154.074 72.3196 152.833 71.9323C151.592 71.545 150.935 70.2925 151.322 69.0514ZM143.685 66.6681C144.073 65.4271 145.325 64.7703 146.566 65.1576C147.807 65.5449 148.464 66.7975 148.077 68.0385C147.69 69.2796 146.437 69.9363 145.196 69.549C143.955 69.1617 143.298 67.9091 143.685 66.6681ZM137.559 67.1656C137.464 67.1358 137.273 67.0762 137.082 67.0167C136.891 66.9571 136.826 66.8318 136.73 66.802C136.635 66.7722 136.474 66.6172 136.408 66.4919C136.342 66.3667 136.276 66.2414 136.115 66.0864C136.05 65.9611 135.984 65.8359 135.948 65.6151C135.882 65.4899 135.846 65.2692 135.876 65.1737C135.811 65.0484 135.87 64.8575 135.9 64.7621C135.959 64.5711 135.989 64.4757 136.049 64.2847C136.227 63.7119 136.597 63.1987 137.193 62.9658C137.319 62.9002 137.444 62.8345 137.664 62.7986C137.79 62.7329 138.01 62.6971 138.106 62.7269C138.201 62.7566 138.422 62.7207 138.517 62.7505C139.341 62.7979 140.015 63.3227 140.344 63.949C140.606 64.45 140.714 65.1122 140.535 65.685C140.476 65.8759 140.446 65.9714 140.386 66.1623C140.327 66.3532 140.202 66.4189 140.172 66.5143C140.047 66.58 139.987 66.7709 139.862 66.8366C139.737 66.9023 139.611 66.9679 139.456 67.1291C138.765 67.3322 138.132 67.3444 137.559 67.1656ZM120.498 121.867C120.403 121.837 120.212 121.777 120.021 121.718C119.83 121.658 119.765 121.533 119.669 121.503C119.603 121.378 119.413 121.318 119.347 121.193C119.281 121.068 119.215 120.943 119.054 120.787C118.792 120.286 118.684 119.624 118.862 119.052C118.922 118.861 118.952 118.765 119.011 118.574C119.041 118.479 119.196 118.318 119.226 118.222C119.351 118.156 119.411 117.966 119.536 117.9C119.661 117.834 119.786 117.769 119.912 117.703C120.037 117.637 120.162 117.571 120.383 117.536C120.508 117.47 120.729 117.434 120.824 117.464C120.949 117.398 121.14 117.458 121.236 117.488C122.059 117.535 122.733 118.06 123.062 118.686C123.128 118.811 123.193 118.936 123.259 119.062C123.325 119.187 123.36 119.408 123.331 119.503C123.396 119.628 123.337 119.819 123.307 119.915C123.247 120.106 123.218 120.201 123.158 120.392C122.98 120.965 122.61 121.478 122.014 121.711C121.888 121.777 121.763 121.842 121.542 121.878C121.417 121.944 121.292 122.01 121.101 121.95C120.976 122.016 120.785 121.956 120.689 121.926C120.785 121.956 120.689 121.926 120.498 121.867ZM141.802 126.106C142.19 124.865 143.442 124.208 144.683 124.596C145.924 124.983 146.581 126.236 146.194 127.477C145.807 128.718 144.554 129.374 143.313 128.987C142.168 128.63 141.415 127.347 141.802 126.106ZM134.261 123.753C134.648 122.512 135.901 121.855 137.142 122.242C138.383 122.629 139.039 123.882 138.652 125.123C138.265 126.364 137.013 127.021 135.772 126.633C134.531 126.246 133.874 124.994 134.261 123.753ZM126.624 121.369C127.012 120.128 128.264 119.471 129.505 119.859C130.746 120.246 131.403 121.499 131.016 122.74C130.629 123.981 129.376 124.637 128.135 124.25C126.894 123.863 126.237 122.61 126.624 121.369ZM151.045 131.4C150.854 131.341 150.759 131.311 150.568 131.251C150.377 131.192 150.311 131.066 150.216 131.037C150.055 130.882 149.959 130.852 149.894 130.726C149.828 130.601 149.762 130.476 149.601 130.321C149.536 130.196 149.47 130.07 149.434 129.85C149.368 129.724 149.332 129.504 149.362 129.408C149.392 129.313 149.356 129.092 149.386 128.997C149.445 128.806 149.475 128.71 149.535 128.519C149.713 127.946 150.083 127.433 150.679 127.2C150.805 127.135 150.93 127.069 151.15 127.033C151.276 126.967 151.401 126.902 151.592 126.961C151.717 126.896 151.908 126.955 152.003 126.985C152.32 126.979 152.606 127.068 152.863 127.253C153.053 127.313 153.119 127.438 153.215 127.468C153.28 127.593 153.471 127.653 153.537 127.778C153.603 127.903 153.668 128.028 153.829 128.184C153.895 128.309 153.961 128.434 154.026 128.559C154.092 128.685 154.128 128.905 154.098 129.001C154.164 129.126 154.104 129.317 154.075 129.412C154.015 129.603 153.985 129.699 153.926 129.89C153.747 130.462 153.378 130.976 152.781 131.209C152.656 131.274 152.531 131.34 152.31 131.376C152.185 131.441 151.964 131.477 151.869 131.448C151.743 131.513 151.552 131.454 151.457 131.424C151.332 131.49 151.141 131.43 151.045 131.4ZM176.448 92.6066C175.876 92.4279 175.362 92.0582 175.129 91.4617C175.064 91.3364 174.998 91.2112 174.962 90.9905C174.896 90.8652 174.86 90.6445 174.89 90.549C174.92 90.4536 174.884 90.2328 174.914 90.1374C174.944 90.0419 175.003 89.851 175.063 89.6601C175.122 89.4691 175.152 89.3737 175.212 89.1827C175.271 88.9918 175.396 88.9261 175.426 88.8306C175.551 88.765 175.611 88.574 175.736 88.5084C175.861 88.4427 175.987 88.377 176.142 88.2159C176.267 88.1502 176.392 88.0846 176.613 88.0487C176.738 87.983 176.959 87.9471 177.054 87.9769C177.15 88.0067 177.37 87.9708 177.466 88.0006C177.782 87.9945 178.068 88.0839 178.325 88.2687C178.516 88.3283 178.582 88.4536 178.677 88.4834C178.743 88.6086 178.934 88.6682 178.999 88.7935C179.065 88.9187 179.131 89.044 179.292 89.199C179.555 89.7001 179.662 90.3622 179.484 90.935C179.305 91.5078 178.935 92.021 178.339 92.2539C177.653 92.7732 177.021 92.7854 176.448 92.6066ZM167.726 112.512C168.113 111.271 169.365 110.614 170.606 111.001C171.847 111.389 172.504 112.641 172.117 113.882C171.73 115.123 170.478 115.78 169.237 115.393C168.061 115.131 167.339 113.753 167.726 112.512ZM170.078 104.97C170.465 103.729 171.718 103.072 172.958 103.46C174.199 103.847 174.856 105.1 174.469 106.341C174.082 107.582 172.83 108.238 171.589 107.851C170.443 107.494 169.721 106.116 170.078 104.97ZM172.46 97.3331C172.847 96.092 174.099 95.4353 175.34 95.8226C176.581 96.2099 177.209 97.5579 176.851 98.7035C176.464 99.9445 175.212 100.601 173.971 100.214C172.825 99.8565 172.103 98.4786 172.46 97.3331ZM166.92 123.155C166.348 122.976 165.834 122.607 165.601 122.01C165.536 121.885 165.47 121.76 165.434 121.539C165.368 121.414 165.333 121.193 165.362 121.098C165.392 121.002 165.356 120.781 165.386 120.686C165.446 120.495 165.475 120.4 165.535 120.209C165.713 119.636 166.083 119.123 166.709 118.794C166.834 118.729 166.96 118.663 167.18 118.627C167.306 118.561 167.526 118.526 167.622 118.555C167.747 118.49 167.938 118.549 168.033 118.579C168.35 118.573 168.636 118.662 168.892 118.847C169.083 118.907 169.149 119.032 169.245 119.062C169.31 119.187 169.501 119.247 169.567 119.372C169.633 119.497 169.698 119.622 169.859 119.777C169.925 119.903 169.991 120.028 170.027 120.249C170.092 120.374 170.128 120.595 170.098 120.69C170.164 120.815 170.105 121.006 170.075 121.102C170.015 121.293 169.985 121.388 169.926 121.579C169.747 122.152 169.378 122.665 168.781 122.898C168.155 123.226 167.493 123.334 166.92 123.155ZM112.127 106.055C111.554 105.876 111.041 105.506 110.808 104.91C110.742 104.784 110.677 104.659 110.641 104.438C110.575 104.313 110.539 104.093 110.569 103.997C110.503 103.872 110.563 103.681 110.592 103.585C110.652 103.394 110.682 103.299 110.741 103.108C110.801 102.917 110.831 102.822 110.89 102.631C110.92 102.535 111.075 102.374 111.105 102.279C111.135 102.183 111.29 102.022 111.415 101.956C111.54 101.891 111.665 101.825 111.82 101.664C112.947 101.073 114.379 101.52 114.97 102.647C115.036 102.772 115.102 102.898 115.138 103.118C115.203 103.244 115.239 103.464 115.209 103.56C115.18 103.655 115.216 103.876 115.186 103.971C115.126 104.162 115.096 104.258 115.037 104.449C114.858 105.021 114.489 105.535 113.892 105.768C113.362 106.126 112.7 106.233 112.127 106.055ZM113.028 95.4411C113.415 94.2001 114.667 93.5434 115.908 93.9306C117.149 94.3179 117.806 95.5705 117.419 96.8116C117.032 98.0526 115.78 98.7093 114.539 98.322C113.268 98.0302 112.641 96.6822 113.028 95.4411ZM115.38 87.8994C115.767 86.6584 117.019 86.0017 118.26 86.389C119.501 86.7763 120.158 88.0288 119.771 89.2698C119.384 90.5109 118.132 91.1676 116.891 90.7803C115.65 90.393 115.023 89.045 115.38 87.8994ZM117.762 80.2623C118.149 79.0212 119.401 78.3645 120.642 78.7518C121.883 79.1391 122.51 80.4871 122.153 81.6327C121.766 82.8737 120.514 83.5305 119.273 83.1432C118.032 82.7559 117.405 81.4078 117.762 80.2623ZM121.655 75.506C121.082 75.3273 120.569 74.9576 120.336 74.3611C120.073 73.8601 119.965 73.1979 120.144 72.6251C120.323 72.0523 120.692 71.5391 121.289 71.3063C121.915 70.9779 122.863 70.9596 123.472 71.3591C123.663 71.4187 123.729 71.5439 123.824 71.5737C123.89 71.699 124.081 71.7585 124.146 71.8838C124.212 72.0091 124.278 72.1343 124.439 72.2894C124.702 72.7904 124.809 73.4526 124.631 74.0253C124.452 74.5981 124.082 75.1113 123.486 75.3442C122.86 75.6726 122.228 75.6848 121.655 75.506Z" fill="#F5F9FF"/>
</g>
<defs>
<filter id="filter0_i_250_17" x="81.4353" y="123.956" width="94.9882" height="51.7506" filterUnits="userSpaceOnUse" color-interpolation-filters="sRGB">
<feFlood flood-opacity="0" result="BackgroundImageFix"/>
<feBlend mode="normal" in="SourceGraphic" in2="BackgroundImageFix" result="shape"/>
<feColorMatrix in="SourceAlpha" type="matrix" values="0 0 0 0 0 0 0 0 0 0 0 0 0 0 0 0 0 0 127 0" result="hardAlpha"/>
<feOffset dy="-3"/>
<feGaussianBlur stdDeviation="2.15"/>
<feComposite in2="hardAlpha" operator="arithmetic" k2="-1" k3="1"/>
<feColorMatrix type="matrix" values="0 0 0 0 0.272901 0 0 0 0 0.0512703 0 0 0 0 0.367886 0 0 0 0.45 0"/>
<feBlend mode="normal" in2="shape" result="effect1_innerShadow_250_17"/>
</filter>
<filter id="filter1_d_250_17" x="88.1162" y="135.732" width="30.2916" height="18.5413" filterUnits="userSpaceOnUse" color-interpolation-filters="sRGB">
<feFlood flood-opacity="0" result="BackgroundImageFix"/>
<feColorMatrix in="SourceAlpha" type="matrix" values="0 0 0 0 0 0 0 0 0 0 0 0 0 0 0 0 0 0 127 0" result="hardAlpha"/>
<feOffset dy="4"/>
<feGaussianBlur stdDeviation="2"/>
<feComposite in2="hardAlpha" operator="out"/>
<feColorMatrix type="matrix" values="0 0 0 0 0 0 0 0 0 0 0 0 0 0 0 0 0 0 0.25 0"/>
<feBlend mode="normal" in2="BackgroundImageFix" result="effect1_dropShadow_250_17"/>
<feBlend mode="normal" in="SourceGraphic" in2="effect1_dropShadow_250_17" result="shape"/>
</filter>
<filter id="filter2_d_250_17" x="86.2206" y="143.267" width="81.1401" height="32.6038" filterUnits="userSpaceOnUse" color-interpolation-filters="sRGB">
<feFlood flood-opacity="0" result="BackgroundImageFix"/>
<feColorMatrix in="SourceAlpha" type="matrix" values="0 0 0 0 0 0 0 0 0 0 0 0 0 0 0 0 0 0 127 0" result="hardAlpha"/>
<feOffset dy="4"/>
<feGaussianBlur stdDeviation="2"/>
<feComposite in2="hardAlpha" operator="out"/>
<feColorMatrix type="matrix" values="0 0 0 0 0 0 0 0 0 0 0 0 0 0 0 0 0 0 0.25 0"/>
<feBlend mode="normal" in2="BackgroundImageFix" result="effect1_dropShadow_250_17"/>
<feBlend mode="normal" in="SourceGraphic" in2="effect1_dropShadow_250_17" result="shape"/>
</filter>
<filter id="filter3_d_250_17" x="100.556" y="56.6821" width="88.8622" height="88.8103" filterUnits="userSpaceOnUse" color-interpolation-filters="sRGB">
<feFlood flood-opacity="0" result="BackgroundImageFix"/>
<feColorMatrix in="SourceAlpha" type="matrix" values="0 0 0 0 0 0 0 0 0 0 0 0 0 0 0 0 0 0 127 0" result="hardAlpha"/>
<feOffset dy="4"/>
<feGaussianBlur stdDeviation="2"/>
<feComposite in2="hardAlpha" operator="out"/>
<feColorMatrix type="matrix" values="0 0 0 0 0 0 0 0 0 0 0 0 0 0 0 0 0 0 0.25 0"/>
<feBlend mode="normal" in2="BackgroundImageFix" result="effect1_dropShadow_250_17"/>
<feBlend mode="normal" in="SourceGraphic" in2="effect1_dropShadow_250_17" result="shape"/>
</filter>
<radialGradient id="paint0_radial_250_17" cx="0" cy="0" r="1" gradientUnits="userSpaceOnUse" gradientTransform="translate(141.434 126.404) rotate(62.7224) scale(98.3927 93.8662)">
<stop stop-color="#F7FFDC" stop-opacity="0.47"/>
<stop offset="1" stop-color="#00101C" stop-opacity="0"/>
</radialGradient>
<linearGradient id="paint1_linear_250_17" x1="95.8643" y1="178.054" x2="133.464" y2="144.971" gradientUnits="userSpaceOnUse">
<stop stop-color="#1169AD"/>
<stop offset="1" stop-color="#3DB8D8"/>
</linearGradient>
<linearGradient id="paint2_linear_250_17" x1="196.26" y1="54.8573" x2="62.917" y2="169.832" gradientUnits="userSpaceOnUse">
<stop stop-color="#3DB8D8"/>
<stop offset="1" stop-color="#1169AD"/>
</linearGradient>
</defs>
</svg>
