<svg width="29" height="29" viewBox="0 0 29 29" fill="none" xmlns="http://www.w3.org/2000/svg">
<g filter="url(#filter0_i_247_3934)">
<path d="M7.59998 28.5H20.9C25.1 28.5 28.5 25.1 28.5 20.9V7.60001C28.5 3.40001 25.1 0 20.9 0H7.59998C3.39998 0 0 3.40001 0 7.60001V20.9C0 25.1 3.39998 28.5 7.59998 28.5Z" fill="white"/>
</g>
<path d="M17.8 22.4H10.6C8.09998 22.4 6 20.3 6 17.8V10.6C6 8.10001 8.09998 6 10.6 6H17.8C20.3 6 22.4 8.10001 22.4 10.6V17.8C22.4 20.4 20.4 22.4 17.8 22.4ZM10.7 7.60001C8.99995 7.60001 7.59998 8.99998 7.59998 10.7V17.9C7.59998 19.6 8.99995 21 10.7 21H17.9C19.6 21 21 19.6 21 17.9V10.7C21 8.99998 19.6 7.60001 17.9 7.60001H10.7Z" fill="#3DB8D8"/>
<path d="M14.3 18.4C12 18.4 10.1 16.5 10.1 14.2C10.1 11.9 12 10 14.3 10C16.6 10 18.5 11.9 18.5 14.2C18.5 16.5 16.6 18.4 14.3 18.4ZM14.3 11.6C12.8 11.6 11.6 12.8 11.6 14.3C11.6 15.8 12.8 17 14.3 17C15.8 17 17 15.8 17 14.3C16.9 12.8 15.7 11.6 14.3 11.6Z" fill="#3DB8D8"/>
<path d="M19.6 9.79999C19.6 10.4 19.2 10.8 18.6 10.8C18 10.8 17.6 10.4 17.6 9.79999C17.6 9.19999 18 8.79999 18.6 8.79999C19.1 8.79999 19.6 9.29999 19.6 9.79999Z" fill="#3DB8D8"/>
<defs>
<filter id="filter0_i_247_3934" x="0" y="-2" width="28.5" height="30.5" filterUnits="userSpaceOnUse" color-interpolation-filters="sRGB">
<feFlood flood-opacity="0" result="BackgroundImageFix"/>
<feBlend mode="normal" in="SourceGraphic" in2="BackgroundImageFix" result="shape"/>
<feColorMatrix in="SourceAlpha" type="matrix" values="0 0 0 0 0 0 0 0 0 0 0 0 0 0 0 0 0 0 127 0" result="hardAlpha"/>
<feOffset dy="-2"/>
<feGaussianBlur stdDeviation="2"/>
<feComposite in2="hardAlpha" operator="arithmetic" k2="-1" k3="1"/>
<feColorMatrix type="matrix" values="0 0 0 0 0 0 0 0 0 0 0 0 0 0 0 0 0 0 0.25 0"/>
<feBlend mode="normal" in2="shape" result="effect1_innerShadow_247_3934"/>
</filter>
</defs>
</svg>
