<svg width="33" height="31" viewBox="0 0 33 31" fill="none" xmlns="http://www.w3.org/2000/svg">
<path d="M28.2 10.3C30.5195 10.3 32.4 8.4196 32.4 6.10001C32.4 3.78041 30.5195 1.90002 28.2 1.90002C25.8804 1.90002 24 3.78041 24 6.10001C24 8.4196 25.8804 10.3 28.2 10.3Z" fill="white"/>
<path d="M3.39996 12.8H9.39996C11.3 12.8 12.8 11.3 12.8 9.40002V3.40002C12.8 1.50002 11.3 0 9.39996 0H3.39996C1.49996 0 0 1.50002 0 3.40002V9.40002C0 11.3 1.49996 12.8 3.39996 12.8Z" fill="#3DB8D8"/>
<path d="M3.39996 30.3H9.39996C11.3 30.3 12.8 28.8 12.8 26.9V20.9C12.8 19 11.3 17.5 9.39996 17.5H3.39996C1.49996 17.5 0 19 0 20.9V26.9C0 28.8 1.49996 30.3 3.39996 30.3Z" fill="white"/>
<path d="M20.7 30.3H26.7C28.6 30.3 30.1 28.8 30.1 26.9V20.9C30.1 19 28.6 17.5 26.7 17.5H20.7C18.8 17.5 17.3 19 17.3 20.9V26.9C17.4 28.8 18.9 30.3 20.7 30.3Z" fill="#1169AD"/>
</svg>
