<svg width="45" height="45" viewBox="0 0 45 45" fill="none" xmlns="http://www.w3.org/2000/svg">
<mask id="mask0_247_4237" style="mask-type:luminance" maskUnits="userSpaceOnUse" x="0" y="0" width="45" height="45">
<path d="M1.51546 30.2C1.41546 30 1.41545 29.9 1.31545 29.7C0.815452 28.2 0.31547 26.4 0.11547 24.3C0.0154701 23.3 -0.0845299 21.9 0.11547 20.3C0.11547 19.9 0.215452 19.4 0.315452 19C0.315452 18.9 0.315458 18.8 0.415458 18.7V18.6C0.415458 18.5 0.415464 18.4 0.515464 18.2C0.615464 17.6 0.815458 17 0.915458 16.4C0.915458 16.2 1.01547 16 1.11547 15.9C1.11547 15.9 1.11547 15.9 1.11547 15.8C1.11547 15.7 1.21545 15.5 1.21545 15.4C1.51545 14.4 1.91545 13.4 2.31545 12.6C2.41545 12.4 2.51546 12.3 2.51546 12.1C2.51546 12 2.61547 12 2.61547 11.9C2.61547 11.8 2.71545 11.8 2.71545 11.7V11.6C2.71545 11.6 2.71545 11.5 2.81545 11.5C2.81545 11.4 2.91546 11.4 2.91546 11.3C3.51546 10.3 4.01546 9.49999 4.51546 8.89999C4.51546 8.89999 4.51546 8.89999 4.51546 8.79999C4.51546 8.69999 4.61547 8.69999 4.61547 8.59999C4.81547 8.29999 5.01545 8.09999 5.31545 7.79999C5.41545 7.59999 5.61545 7.49999 5.71545 7.39999C6.01545 6.99999 6.41545 6.59999 6.81545 6.29999C7.01545 6.09999 7.11545 5.99999 7.31545 5.79999C7.41545 5.69999 7.51547 5.6 7.61547 5.5C7.71547 5.4 7.81546 5.3 8.01546 5.2C8.41546 4.9 8.81545 4.6 9.21545 4.2C9.51545 4 9.91545 3.7 10.2154 3.5C12.0154 2.3 14.0155 1.39999 16.1155 0.799988C17.2155 0.499988 18.5155 0.199991 19.9155 0.0999908H20.1155C20.5155 0.0999908 20.9155 0 21.3155 0C21.6155 0 21.9154 0 22.2154 0H22.3155C22.8155 0 23.0155 0 23.3155 0H23.4155C23.8155 0 24.0155 -9.15676e-06 24.4155 0.0999908C24.6155 0.0999908 24.8155 0.0999969 25.0155 0.199997C25.3155 0.199997 25.6155 0.299988 25.8155 0.299988C26.0155 0.299988 26.3155 0.399994 26.5155 0.399994C26.7155 0.399994 26.8155 0.5 27.0155 0.5C27.1155 0.5 27.1154 0.5 27.2154 0.5C28.9154 0.9 30.2155 1.39999 31.0155 1.79999C31.1155 1.79999 31.1154 1.89999 31.2154 1.89999C31.6154 2.09999 31.9154 2.19999 32.2154 2.39999C32.3154 2.39999 32.4155 2.5 32.5155 2.5C32.9155 2.7 33.5154 3 34.2154 3.5C37.4154 5.6 40.0155 8.4 41.8155 11.7C41.9155 11.8 41.9155 11.9 42.0155 12C42.3155 12.5 42.5154 13.1 42.7154 13.5V13.6C42.9154 14 43.0154 14.4 43.2154 14.8C43.2154 14.9 43.3155 14.9 43.3155 15L43.4155 15.2C43.4155 15.3 43.5155 15.5 43.5155 15.6C43.6155 16 43.7155 16.3 43.8155 16.6C43.9155 16.9 43.9155 17.2 44.0155 17.4V17.5C44.0155 17.6 44.0155 17.7 44.1155 17.8C44.1155 18 44.2154 18.1 44.2154 18.2C44.9154 21.9 44.6155 25.7 43.3155 29.2C43.3155 29.3 43.2154 29.4 43.2154 29.5V29.6C43.2154 29.7 43.1155 29.9 43.1155 30C42.0155 32.8 40.4155 35.2 38.6155 37.2C35.5155 40.6 31.7155 42.7 27.9155 43.6H27.8155C27.6155 43.6 27.4155 43.7 27.3155 43.7C27.2155 43.7 27.2155 43.7 27.1155 43.7C27.0155 43.7 26.9155 43.7 26.8155 43.8C26.7155 43.8 26.6155 43.8 26.5155 43.9C26.1155 44 25.8155 44 25.8155 44C25.4155 44.1 25.2155 44.1 24.8155 44.1C24.8155 44.1 24.8154 44.1 24.7154 44.1H24.6155H24.5155C24.3155 44.1 24.2155 44.1 24.0155 44.1H23.9155H23.6155C23.3155 44.1 22.9155 44.1 22.6155 44.1H22.5155C22.4155 44.1 22.4155 44.1 22.3155 44.1C22.0155 44.1 21.8155 44.1 21.5155 44.1H21.4155C21.2155 44.1 21.0155 44.1 20.8155 44.1C20.7155 44.1 20.6155 44.1 20.5155 44.1C20.4155 44.1 20.3154 44.1 20.2154 44.1C20.1154 44.1 20.0155 44.1 19.9155 44.1C19.5155 44 19.1154 44 18.7154 43.9C16.5154 43.5 14.8155 42.8 13.8155 42.4C13.7155 42.4 13.7155 42.3 13.6155 42.3C13.3155 42.2 13.1155 42.1 12.8155 41.9C12.7155 41.9 12.7155 41.8 12.6155 41.8C12.3155 41.7 11.8155 41.4 11.3155 41.1C10.3155 40.5 9.41546 39.9 8.51546 39.2C8.41546 39.1 8.21547 39 8.11547 38.9C8.01547 38.8 7.91545 38.7 7.81545 38.7C5.91545 37.1 4.61545 35.4 3.81545 34C3.71545 33.9 3.71547 33.8 3.61547 33.7C3.61547 33.7 3.61547 33.7 3.61547 33.6C2.51547 32.7 1.91546 31.4 1.51546 30.2Z" fill="white"/>
</mask>
<g mask="url(#mask0_247_4237)">
<g filter="url(#filter0_i_247_4237)">
<path d="M1.51546 30.2C1.41546 30 1.41545 29.9 1.31545 29.7C0.815452 28.2 0.31547 26.4 0.11547 24.3C0.0154701 23.3 -0.0845299 21.9 0.11547 20.3C0.11547 19.9 0.215452 19.4 0.315452 19C0.315452 18.9 0.315458 18.8 0.415458 18.7V18.6C0.415458 18.5 0.415464 18.4 0.515464 18.2C0.615464 17.6 0.815458 17 0.915458 16.4C0.915458 16.2 1.01547 16 1.11547 15.9C1.11547 15.9 1.11547 15.9 1.11547 15.8C1.11547 15.7 1.21545 15.5 1.21545 15.4C1.51545 14.4 1.91545 13.4 2.31545 12.6C2.41545 12.4 2.51546 12.3 2.51546 12.1C2.51546 12 2.61547 12 2.61547 11.9C2.61547 11.8 2.71545 11.8 2.71545 11.7V11.6C2.71545 11.6 2.71545 11.5 2.81545 11.5C2.81545 11.4 2.91546 11.4 2.91546 11.3C3.51546 10.3 4.01546 9.49999 4.51546 8.89999C4.51546 8.89999 4.51546 8.89999 4.51546 8.79999C4.51546 8.69999 4.61547 8.69999 4.61547 8.59999C4.81547 8.29999 5.01545 8.09999 5.31545 7.79999C5.41545 7.59999 5.61545 7.49999 5.71545 7.39999C6.01545 6.99999 6.41545 6.59999 6.81545 6.29999C7.01545 6.09999 7.11545 5.99999 7.31545 5.79999C7.41545 5.69999 7.51547 5.6 7.61547 5.5C7.71547 5.4 7.81546 5.3 8.01546 5.2C8.41546 4.9 8.81545 4.6 9.21545 4.2C9.51545 4 9.91545 3.7 10.2154 3.5C12.0154 2.3 14.0155 1.39999 16.1155 0.799988C17.2155 0.499988 18.5155 0.199991 19.9155 0.0999908H20.1155C20.5155 0.0999908 20.9155 0 21.3155 0C21.6155 0 21.9154 0 22.2154 0H22.3155C22.8155 0 23.0155 0 23.3155 0H23.4155C23.8155 0 24.0155 -9.15676e-06 24.4155 0.0999908C24.6155 0.0999908 24.8155 0.0999969 25.0155 0.199997C25.3155 0.199997 25.6155 0.299988 25.8155 0.299988C26.0155 0.299988 26.3155 0.399994 26.5155 0.399994C26.7155 0.399994 26.8155 0.5 27.0155 0.5C27.1155 0.5 27.1154 0.5 27.2154 0.5C28.9154 0.9 30.2155 1.39999 31.0155 1.79999C31.1155 1.79999 31.1154 1.89999 31.2154 1.89999C31.6154 2.09999 31.9154 2.19999 32.2154 2.39999C32.3154 2.39999 32.4155 2.5 32.5155 2.5C32.9155 2.7 33.5154 3 34.2154 3.5C37.4154 5.6 40.0155 8.4 41.8155 11.7C41.9155 11.8 41.9155 11.9 42.0155 12C42.3155 12.5 42.5154 13.1 42.7154 13.5V13.6C42.9154 14 43.0154 14.4 43.2154 14.8C43.2154 14.9 43.3155 14.9 43.3155 15L43.4155 15.2C43.4155 15.3 43.5155 15.5 43.5155 15.6C43.6155 16 43.7155 16.3 43.8155 16.6C43.9155 16.9 43.9155 17.2 44.0155 17.4V17.5C44.0155 17.6 44.0155 17.7 44.1155 17.8C44.1155 18 44.2154 18.1 44.2154 18.2C44.9154 21.9 44.6155 25.7 43.3155 29.2C43.3155 29.3 43.2154 29.4 43.2154 29.5V29.6C43.2154 29.7 43.1155 29.9 43.1155 30C42.0155 32.8 40.4155 35.2 38.6155 37.2C35.5155 40.6 31.7155 42.7 27.9155 43.6H27.8155C27.6155 43.6 27.4155 43.7 27.3155 43.7C27.2155 43.7 27.2155 43.7 27.1155 43.7C27.0155 43.7 26.9155 43.7 26.8155 43.8C26.7155 43.8 26.6155 43.8 26.5155 43.9C26.1155 44 25.8155 44 25.8155 44C25.4155 44.1 25.2155 44.1 24.8155 44.1C24.8155 44.1 24.8154 44.1 24.7154 44.1H24.6155H24.5155C24.3155 44.1 24.2155 44.1 24.0155 44.1H23.9155H23.6155C23.3155 44.1 22.9155 44.1 22.6155 44.1H22.5155C22.4155 44.1 22.4155 44.1 22.3155 44.1C22.0155 44.1 21.8155 44.1 21.5155 44.1H21.4155C21.2155 44.1 21.0155 44.1 20.8155 44.1C20.7155 44.1 20.6155 44.1 20.5155 44.1C20.4155 44.1 20.3154 44.1 20.2154 44.1C20.1154 44.1 20.0155 44.1 19.9155 44.1C19.5155 44 19.1154 44 18.7154 43.9C16.5154 43.5 14.8155 42.8 13.8155 42.4C13.7155 42.4 13.7155 42.3 13.6155 42.3C13.3155 42.2 13.1155 42.1 12.8155 41.9C12.7155 41.9 12.7155 41.8 12.6155 41.8C12.3155 41.7 11.8155 41.4 11.3155 41.1C10.3155 40.5 9.41546 39.9 8.51546 39.2C8.41546 39.1 8.21547 39 8.11547 38.9C8.01547 38.8 7.91545 38.7 7.81545 38.7C5.91545 37.1 4.61545 35.4 3.81545 34C3.71545 33.9 3.71547 33.8 3.61547 33.7C3.61547 33.7 3.61547 33.7 3.61547 33.6C2.51547 32.7 1.91546 31.4 1.51546 30.2Z" fill="url(#paint0_radial_247_4237)"/>
<g opacity="0.7">
<rect x="-149.905" y="-133.2" width="334.32" height="330.96" fill="url(#paint1_radial_247_4237)"/>
</g>
<rect x="-127.585" y="-150" width="322.08" height="323.76" fill="url(#paint2_radial_247_4237)"/>
<rect x="-144.385" y="-145.92" width="311.76" height="312.96" fill="url(#paint3_radial_247_4237)"/>
</g>
</g>
<defs>
<filter id="filter0_i_247_4237" x="-149.905" y="-153" width="348.4" height="350.76" filterUnits="userSpaceOnUse" color-interpolation-filters="sRGB">
<feFlood flood-opacity="0" result="BackgroundImageFix"/>
<feBlend mode="normal" in="SourceGraphic" in2="BackgroundImageFix" result="shape"/>
<feColorMatrix in="SourceAlpha" type="matrix" values="0 0 0 0 0 0 0 0 0 0 0 0 0 0 0 0 0 0 127 0" result="hardAlpha"/>
<feOffset dx="27" dy="-3"/>
<feGaussianBlur stdDeviation="2"/>
<feComposite in2="hardAlpha" operator="arithmetic" k2="-1" k3="1"/>
<feColorMatrix type="matrix" values="0 0 0 0 0.0440166 0 0 0 0 0.281419 0 0 0 0 0.466066 0 0 0 1 0"/>
<feBlend mode="normal" in2="shape" result="effect1_innerShadow_247_4237"/>
</filter>
<radialGradient id="paint0_radial_247_4237" cx="0" cy="0" r="1" gradientUnits="userSpaceOnUse" gradientTransform="translate(21.8698 25.7721) rotate(-152.043) scale(26.5949 26.5949)">
<stop stop-color="#75B0EE"/>
<stop offset="0.2553" stop-color="#C4D3FF"/>
<stop offset="0.5123" stop-color="#6089F0"/>
<stop offset="0.7693" stop-color="#E6F2FF"/>
<stop offset="1" stop-color="#4062DD"/>
</radialGradient>
<radialGradient id="paint1_radial_247_4237" cx="0" cy="0" r="1" gradientUnits="userSpaceOnUse" gradientTransform="translate(14.0933 60.2134) rotate(-152.024) scale(199.465 199.554)">
<stop stop-color="#75B0EE"/>
<stop offset="0.2553" stop-color="#C4D3FF"/>
<stop offset="0.5123" stop-color="#6089F0"/>
<stop offset="0.7693" stop-color="#E6F2FF"/>
<stop offset="1" stop-color="#4062DD"/>
</radialGradient>
<radialGradient id="paint2_radial_247_4237" cx="0" cy="0" r="1" gradientUnits="userSpaceOnUse" gradientTransform="translate(30.409 39.2058) rotate(-151.66) scale(192.819 194.548)">
<stop stop-color="#75B0EE"/>
<stop offset="0.2553" stop-color="#C4D3FF"/>
<stop offset="0.5123" stop-color="#6089F0"/>
<stop offset="0.7693" stop-color="#E6F2FF"/>
<stop offset="1" stop-color="#4062DD"/>
</radialGradient>
<radialGradient id="paint3_radial_247_4237" cx="0" cy="0" r="1" gradientUnits="userSpaceOnUse" gradientTransform="translate(8.54667 36.9742) rotate(-151.692) scale(186.583 188.116)">
<stop stop-color="#75B0EE"/>
<stop offset="0.2553" stop-color="#C4D3FF"/>
<stop offset="0.5123" stop-color="#6089F0"/>
<stop offset="0.7693" stop-color="#E6F2FF"/>
<stop offset="1" stop-color="#4062DD"/>
</radialGradient>
</defs>
</svg>
