<svg width="237" height="190" viewBox="0 0 237 190" fill="none" xmlns="http://www.w3.org/2000/svg">
<path d="M118.5 190C183.946 190 237 147.467 237 95C237 42.533 183.946 0 118.5 0C53.0542 0 0 42.533 0 95C0 147.467 53.0542 190 118.5 190Z" fill="url(#paint0_radial_250_16)" style="mix-blend-mode:lighten"/>
<mask id="mask0_250_16" style="mask-type:luminance" maskUnits="userSpaceOnUse" x="75" y="53" width="85" height="85">
<path d="M117.3 53C93.9 53 75 71.4 75 94.1C75 105.9 80.1 116.5 88.3 124C89 124.7 89.4 125.6 89.4 126.5L89.6 134.8C89.7 137 91.9 138.4 93.9 137.5L102.3 133.6C103.1 133.2 104 133.2 104.8 133.4C108.7 134.6 112.9 135.2 117.2 135.2C140.5 135.2 159.5 116.8 159.5 94.1C159.6 71.4 140.7 53 117.3 53Z" fill="white"/>
</mask>
<g mask="url(#mask0_250_16)">
<g filter="url(#filter0_i_250_16)">
<path d="M117.3 53C93.9 53 75 71.4 75 94.1C75 105.9 80.1 116.5 88.3 124C89 124.7 89.4 125.6 89.4 126.5L89.6 134.8C89.7 137 91.9 138.4 93.9 137.5L102.3 133.6C103.1 133.2 104 133.2 104.8 133.4C108.7 134.6 112.9 135.2 117.2 135.2C140.5 135.2 159.5 116.8 159.5 94.1C159.6 71.4 140.7 53 117.3 53Z" fill="url(#paint1_linear_250_16)"/>
</g>
</g>
<mask id="mask1_250_16" style="mask-type:luminance" maskUnits="userSpaceOnUse" x="75" y="53" width="85" height="85">
<path d="M117.3 53C93.9 53 75 71.4 75 94.1C75 105.9 80.1 116.5 88.3 124C89 124.7 89.4 125.6 89.4 126.5L89.6 134.8C89.7 137 91.9 138.4 93.9 137.5L102.3 133.6C103.1 133.2 104 133.2 104.8 133.4C108.7 134.6 112.9 135.2 117.2 135.2C140.5 135.2 159.5 116.8 159.5 94.1C159.6 71.4 140.7 53 117.3 53Z" fill="white"/>
</mask>
<g mask="url(#mask1_250_16)">
<path d="M93.9 110.1C93.1 110.1 92.4 109.8 91.8 109.3C91.2 108.7 90.9 108 90.9 107.1C90.9 106.5 91.1 106 91.4 105.5L103.9 86.4C105.3 84.3 107.6 83 110.2 83C111.9 83 113.5 83.5 114.8 84.6L123.9 91.7C124.3 92 124.7 92.1 125.1 92.1C125.5 92.1 126 91.9 126.3 91.7L139.3 81.5C139.8 81.1 140.4 80.9 141 80.9C141.7 80.9 142.3 81.1 142.8 81.6C143.4 82.1 143.7 82.9 143.7 83.6C143.7 84.1 143.6 84.6 143.3 85L131.1 104.4C129.7 106.6 127.3 107.9 124.7 107.9C123 107.9 121.4 107.4 120.1 106.3L111.1 99.3C110.7 99 110.3 98.9 109.9 98.9C109.4 98.9 109 99 108.7 99.3L95.7 109.4C95.2 109.9 94.5 110.1 93.9 110.1Z" fill="url(#paint2_linear_250_16)"/>
<g filter="url(#filter1_i_250_16)">
<path d="M142.7 84.7L130.5 104C128.4 107.4 123.7 108.2 120.6 105.8L111.6 98.8C110.6 98 109.2 98 108.3 98.8L95.3 108.9C94.4 109.6 93.1 109.5 92.3 108.7C91.8 108.3 91.6 107.6 91.6 107C91.6 106.6 91.7 106.1 92 105.8L104.5 86.7C106.7 83.4 111.2 82.6 114.4 85L123.5 92.1C124.5 92.9 125.9 92.9 126.9 92.1L139.9 81.9C140.7 81.3 141.8 81.3 142.5 82C142.9 82.4 143.2 83 143.2 83.5C143 84 142.9 84.4 142.7 84.7Z" fill="#F5F9FF"/>
</g>
</g>
<defs>
<filter id="filter0_i_250_16" x="75" y="50" width="86.5004" height="87.7766" filterUnits="userSpaceOnUse" color-interpolation-filters="sRGB">
<feFlood flood-opacity="0" result="BackgroundImageFix"/>
<feBlend mode="normal" in="SourceGraphic" in2="BackgroundImageFix" result="shape"/>
<feColorMatrix in="SourceAlpha" type="matrix" values="0 0 0 0 0 0 0 0 0 0 0 0 0 0 0 0 0 0 127 0" result="hardAlpha"/>
<feOffset dx="2" dy="-3"/>
<feGaussianBlur stdDeviation="2"/>
<feComposite in2="hardAlpha" operator="arithmetic" k2="-1" k3="1"/>
<feColorMatrix type="matrix" values="0 0 0 0 0 0 0 0 0 0 0 0 0 0 0 0 0 0 0.25 0"/>
<feBlend mode="normal" in2="shape" result="effect1_innerShadow_250_16"/>
</filter>
<filter id="filter1_i_250_16" x="91.6" y="81.4618" width="51.6" height="31.9063" filterUnits="userSpaceOnUse" color-interpolation-filters="sRGB">
<feFlood flood-opacity="0" result="BackgroundImageFix"/>
<feBlend mode="normal" in="SourceGraphic" in2="BackgroundImageFix" result="shape"/>
<feColorMatrix in="SourceAlpha" type="matrix" values="0 0 0 0 0 0 0 0 0 0 0 0 0 0 0 0 0 0 127 0" result="hardAlpha"/>
<feOffset dy="4"/>
<feGaussianBlur stdDeviation="2"/>
<feComposite in2="hardAlpha" operator="arithmetic" k2="-1" k3="1"/>
<feColorMatrix type="matrix" values="0 0 0 0 0 0 0 0 0 0 0 0 0 0 0 0 0 0 0.25 0"/>
<feBlend mode="normal" in2="shape" result="effect1_innerShadow_250_16"/>
</filter>
<radialGradient id="paint0_radial_250_16" cx="0" cy="0" r="1" gradientUnits="userSpaceOnUse" gradientTransform="translate(118.643 95.3975) rotate(45.3949) scale(98.3927 93.8662)">
<stop stop-color="#F7FFDC" stop-opacity="0.47"/>
<stop offset="1" stop-color="#00101C" stop-opacity="0"/>
</radialGradient>
<linearGradient id="paint1_linear_250_16" x1="149.624" y1="45.4319" x2="70.681" y2="164.254" gradientUnits="userSpaceOnUse">
<stop stop-color="#99EAFF"/>
<stop offset="0.9744" stop-color="#1E7EC8"/>
</linearGradient>
<linearGradient id="paint2_linear_250_16" x1="105.985" y1="83.932" x2="128.448" y2="106.775" gradientUnits="userSpaceOnUse">
<stop stop-color="white"/>
<stop offset="0.3107" stop-color="#FBFCFE"/>
<stop offset="0.6372" stop-color="#EEF2FA"/>
<stop offset="0.97" stop-color="#D9E2F4"/>
<stop offset="0.9995" stop-color="#D7E0F3"/>
</linearGradient>
</defs>
</svg>
