<svg width="81" height="83" viewBox="0 0 81 83" fill="none" xmlns="http://www.w3.org/2000/svg">
<path d="M73.2638 40.6461C77.3162 32.4983 74.0308 22.7112 65.8829 18.6588L43.2299 7.39227C35.0821 3.33987 25.295 6.62526 21.2426 14.7732L10.4659 36.4412L62.4871 62.3142L73.2638 40.6461Z" fill="url(#paint0_linear_247_3988)"/>
<g filter="url(#filter0_i_247_3988)">
<path d="M14.7737 64.383L37.4266 75.6495C45.5745 79.7019 55.3615 76.4165 59.4139 68.2687L62.3975 62.2696L10.2869 36.3521L7.30323 42.3511C3.3849 50.454 6.62577 60.3306 14.7737 64.383Z" fill="#1169AD"/>
</g>
<g filter="url(#filter1_d_247_3988)">
<path d="M25.0463 58.1002L36.4175 63.7557C37.492 64.2901 37.8525 65.5863 37.3626 66.5712L37.3181 66.6607C36.7837 67.7352 35.4875 68.0957 34.5026 67.6059L23.1314 61.9503C22.057 61.4159 21.6964 60.1198 22.1863 59.1349L22.2308 59.0453C22.6757 57.9263 23.9718 57.5658 25.0463 58.1002Z" fill="white"/>
<path d="M21.8935 47.5973L46.6058 59.8881C47.6803 60.4225 48.1303 61.7632 47.5959 62.8376C47.0615 63.9121 45.7209 64.3621 44.6464 63.8278L19.9341 51.537C18.8597 51.0026 18.4096 49.6619 18.944 48.5875C19.5229 47.4235 20.8191 47.063 21.8935 47.5973Z" fill="white"/>
</g>
<g filter="url(#filter2_d_247_3988)">
<path d="M40.4396 41.2971L38.285 37.545C38.1505 37.3664 37.1182 35.6245 36.1745 33.4798C34.7817 30.4417 33.4766 26.5537 35.2578 22.9722C36.9055 19.6594 40.9276 18.3092 44.2404 19.9569C46.6579 21.1592 48.0943 23.6606 47.9655 26.1653C49.9746 24.5958 52.7465 24.1874 55.164 25.3898C58.4769 27.0374 59.827 31.0595 58.1794 34.3724C56.3981 37.9539 52.5101 39.259 49.247 39.9815C46.9673 40.523 44.9553 40.7508 44.7317 40.7513L40.4396 41.2971Z" fill="#F4F7FC"/>
</g>
<defs>
<filter id="filter0_i_247_3988" x="5.64539" y="35.3521" width="58.7521" height="42.032" filterUnits="userSpaceOnUse" color-interpolation-filters="sRGB">
<feFlood flood-opacity="0" result="BackgroundImageFix"/>
<feBlend mode="normal" in="SourceGraphic" in2="BackgroundImageFix" result="shape"/>
<feColorMatrix in="SourceAlpha" type="matrix" values="0 0 0 0 0 0 0 0 0 0 0 0 0 0 0 0 0 0 127 0" result="hardAlpha"/>
<feOffset dx="2" dy="-1"/>
<feGaussianBlur stdDeviation="2"/>
<feComposite in2="hardAlpha" operator="arithmetic" k2="-1" k3="1"/>
<feColorMatrix type="matrix" values="0 0 0 0 0 0 0 0 0 0 0 0 0 0 0 0 0 0 0.25 0"/>
<feBlend mode="normal" in2="shape" result="effect1_innerShadow_247_3988"/>
</filter>
<filter id="filter1_d_247_3988" x="14.7187" y="47.3555" width="37.1026" height="28.4653" filterUnits="userSpaceOnUse" color-interpolation-filters="sRGB">
<feFlood flood-opacity="0" result="BackgroundImageFix"/>
<feColorMatrix in="SourceAlpha" type="matrix" values="0 0 0 0 0 0 0 0 0 0 0 0 0 0 0 0 0 0 127 0" result="hardAlpha"/>
<feOffset dy="4"/>
<feGaussianBlur stdDeviation="2"/>
<feComposite in2="hardAlpha" operator="out"/>
<feColorMatrix type="matrix" values="0 0 0 0 0 0 0 0 0 0 0 0 0 0 0 0 0 0 0.25 0"/>
<feBlend mode="normal" in2="BackgroundImageFix" result="effect1_dropShadow_247_3988"/>
<feBlend mode="normal" in="SourceGraphic" in2="effect1_dropShadow_247_3988" result="shape"/>
</filter>
<filter id="filter2_d_247_3988" x="30.3931" y="19.2545" width="32.4886" height="30.0426" filterUnits="userSpaceOnUse" color-interpolation-filters="sRGB">
<feFlood flood-opacity="0" result="BackgroundImageFix"/>
<feColorMatrix in="SourceAlpha" type="matrix" values="0 0 0 0 0 0 0 0 0 0 0 0 0 0 0 0 0 0 127 0" result="hardAlpha"/>
<feOffset dy="4"/>
<feGaussianBlur stdDeviation="2"/>
<feComposite in2="hardAlpha" operator="out"/>
<feColorMatrix type="matrix" values="0 0 0 0 0 0 0 0 0 0 0 0 0 0 0 0 0 0 0.25 0"/>
<feBlend mode="normal" in2="BackgroundImageFix" result="effect1_dropShadow_247_3988"/>
<feBlend mode="normal" in="SourceGraphic" in2="effect1_dropShadow_247_3988" result="shape"/>
</filter>
<linearGradient id="paint0_linear_247_3988" x1="76.1507" y1="19.7694" x2="12.7472" y2="72.554" gradientUnits="userSpaceOnUse">
<stop stop-color="#3DB8D8"/>
<stop offset="1" stop-color="#1169AD"/>
</linearGradient>
</defs>
</svg>
