<svg width="237" height="190" viewBox="0 0 237 190" fill="none" xmlns="http://www.w3.org/2000/svg">
<path d="M118.5 190C183.946 190 237 147.467 237 95C237 42.533 183.946 0 118.5 0C53.0542 0 0 42.533 0 95C0 147.467 53.0542 190 118.5 190Z" fill="url(#paint0_radial_250_15)" style="mix-blend-mode:lighten"/>
<mask id="mask0_250_15" style="mask-type:luminance" maskUnits="userSpaceOnUse" x="51" y="34" width="116" height="124">
<path d="M157.928 136.028L91.5727 157.046C85.2935 159.034 78.5049 155.583 76.4891 149.219L51.6283 70.7294C49.6395 64.4502 53.0912 57.6616 59.4552 55.6458L125.81 34.6284C132.09 32.6395 138.878 36.0912 140.894 42.4552L165.755 120.945C167.744 127.224 164.292 134.012 157.928 136.028Z" fill="white"/>
</mask>
<g mask="url(#mask0_250_15)">
<g filter="url(#filter0_i_250_15)">
<path d="M157.928 136.028L91.5727 157.046C85.2935 159.034 78.5049 155.583 76.4891 149.219L51.6283 70.7294C49.6395 64.4502 53.0912 57.6616 59.4552 55.6458L125.81 34.6284C132.09 32.6395 138.878 36.0912 140.894 42.4552L165.755 120.945C167.744 127.224 164.292 134.012 157.928 136.028Z" fill="#3DB8D8"/>
</g>
<path d="M136.764 55.0607L62.3475 78.6315L78.0434 128.186L152.46 104.615L136.764 55.0607Z" fill="url(#paint1_linear_250_15)"/>
<mask id="mask1_250_15" style="mask-type:luminance" maskUnits="userSpaceOnUse" x="92" y="74" width="29" height="37">
<path d="M102.143 75.4566C94.533 77.9603 90.7434 86.63 93.8411 94.0518C97.5343 103.059 108.291 108.428 112.068 110.033C112.823 110.354 113.671 110.085 114.189 109.361C116.384 105.678 122.664 94.2591 119.519 84.3313C117.123 77.0608 109.329 73.0872 102.143 75.4566ZM101.106 90.1635C100.192 87.2785 101.815 84.15 104.7 83.2362C107.585 82.3224 110.714 83.9458 111.628 86.8308C112.541 89.7158 110.918 92.8442 108.033 93.758C105.148 94.6718 102.02 93.0485 101.106 90.1635Z" fill="white"/>
</mask>
<g mask="url(#mask1_250_15)">
<g filter="url(#filter1_i_250_15)">
<path d="M102.143 75.4566C94.533 77.9603 90.7434 86.63 93.8411 94.0518C97.5343 103.059 108.291 108.428 112.068 110.033C112.823 110.354 113.671 110.085 114.189 109.361C116.384 105.678 122.664 94.2591 119.519 84.3313C117.123 77.0608 109.329 73.0872 102.143 75.4566ZM101.106 90.1635C100.192 87.2785 101.815 84.15 104.7 83.2362C107.585 82.3224 110.714 83.9458 111.628 86.8308C112.541 89.7158 110.918 92.8442 108.033 93.758C105.148 94.6718 102.02 93.0485 101.106 90.1635Z" fill="#11558B"/>
</g>
</g>
<g filter="url(#filter2_d_250_15)">
<path d="M69.3189 66.153C70.179 68.8683 68.6984 71.8582 65.8983 72.7451C63.183 73.6051 60.1932 72.1246 59.3062 69.3245C58.4193 66.5243 59.9267 63.6193 62.7269 62.7324C65.4422 61.8724 68.432 63.3529 69.3189 66.153Z" fill="#B8F0FF"/>
</g>
<g filter="url(#filter3_d_250_15)">
<path d="M100.176 58.3401L77.7746 65.4355C76.7564 65.758 75.7239 65.1513 75.4283 64.218C75.1058 63.1997 75.7124 62.1673 76.6458 61.8716L99.0471 54.7762C100.065 54.4537 101.098 55.0603 101.393 55.9937C101.689 56.9271 101.109 58.0444 100.176 58.3401Z" fill="#B8F0FF"/>
</g>
<g filter="url(#filter4_d_250_15)">
<path d="M114.578 130.339L84.3702 139.907C83.0125 140.337 81.56 139.583 81.13 138.225C80.7 136.868 81.4537 135.415 82.8113 134.985L113.019 125.417C114.377 124.987 115.829 125.741 116.259 127.098C116.689 128.456 115.936 129.909 114.578 130.339Z" fill="#11558B"/>
</g>
<g filter="url(#filter5_d_250_15)">
<path d="M156.557 126.099L86.9772 148.137C85.6195 148.568 84.167 147.814 83.737 146.456C83.307 145.098 84.0607 143.646 85.4183 143.216L154.998 121.177C156.356 120.747 157.808 121.501 158.238 122.859C158.668 124.216 157.915 125.669 156.557 126.099Z" fill="#11558B"/>
</g>
</g>
<defs>
<filter id="filter0_i_250_15" x="51.0665" y="29.5666" width="118.25" height="128.041" filterUnits="userSpaceOnUse" color-interpolation-filters="sRGB">
<feFlood flood-opacity="0" result="BackgroundImageFix"/>
<feBlend mode="normal" in="SourceGraphic" in2="BackgroundImageFix" result="shape"/>
<feColorMatrix in="SourceAlpha" type="matrix" values="0 0 0 0 0 0 0 0 0 0 0 0 0 0 0 0 0 0 127 0" result="hardAlpha"/>
<feOffset dx="3" dy="-5"/>
<feGaussianBlur stdDeviation="2.25"/>
<feComposite in2="hardAlpha" operator="arithmetic" k2="-1" k3="1"/>
<feColorMatrix type="matrix" values="0 0 0 0 0 0 0 0 0 0 0 0 0 0 0 0 0 0 0.25 0"/>
<feBlend mode="normal" in2="shape" result="effect1_innerShadow_250_15"/>
</filter>
<filter id="filter1_i_250_15" x="92.7584" y="74.7715" width="27.6253" height="39.3954" filterUnits="userSpaceOnUse" color-interpolation-filters="sRGB">
<feFlood flood-opacity="0" result="BackgroundImageFix"/>
<feBlend mode="normal" in="SourceGraphic" in2="BackgroundImageFix" result="shape"/>
<feColorMatrix in="SourceAlpha" type="matrix" values="0 0 0 0 0 0 0 0 0 0 0 0 0 0 0 0 0 0 127 0" result="hardAlpha"/>
<feOffset dy="4"/>
<feGaussianBlur stdDeviation="2"/>
<feComposite in2="hardAlpha" operator="arithmetic" k2="-1" k3="1"/>
<feColorMatrix type="matrix" values="0 0 0 0 0 0 0 0 0 0 0 0 0 0 0 0 0 0 0.37 0"/>
<feBlend mode="normal" in2="shape" result="effect1_innerShadow_250_15"/>
</filter>
<filter id="filter2_d_250_15" x="55.0524" y="60.4886" width="18.5103" height="18.5002" filterUnits="userSpaceOnUse" color-interpolation-filters="sRGB">
<feFlood flood-opacity="0" result="BackgroundImageFix"/>
<feColorMatrix in="SourceAlpha" type="matrix" values="0 0 0 0 0 0 0 0 0 0 0 0 0 0 0 0 0 0 127 0" result="hardAlpha"/>
<feOffset dy="2"/>
<feGaussianBlur stdDeviation="2"/>
<feComposite in2="hardAlpha" operator="out"/>
<feColorMatrix type="matrix" values="0 0 0 0 0.179429 0 0 0 0 0.162517 0 0 0 0 0.669883 0 0 0 0.25 0"/>
<feBlend mode="normal" in2="BackgroundImageFix" result="effect1_dropShadow_250_15"/>
<feBlend mode="normal" in="SourceGraphic" in2="effect1_dropShadow_250_15" result="shape"/>
</filter>
<filter id="filter3_d_250_15" x="71.3409" y="52.6888" width="34.1301" height="18.8341" filterUnits="userSpaceOnUse" color-interpolation-filters="sRGB">
<feFlood flood-opacity="0" result="BackgroundImageFix"/>
<feColorMatrix in="SourceAlpha" type="matrix" values="0 0 0 0 0 0 0 0 0 0 0 0 0 0 0 0 0 0 127 0" result="hardAlpha"/>
<feOffset dy="2"/>
<feGaussianBlur stdDeviation="2"/>
<feComposite in2="hardAlpha" operator="out"/>
<feColorMatrix type="matrix" values="0 0 0 0 0.179429 0 0 0 0 0.162517 0 0 0 0 0.669883 0 0 0 0.25 0"/>
<feBlend mode="normal" in2="BackgroundImageFix" result="effect1_dropShadow_250_15"/>
<feBlend mode="normal" in="SourceGraphic" in2="effect1_dropShadow_250_15" result="shape"/>
</filter>
<filter id="filter4_d_250_15" x="77.0091" y="122.296" width="43.371" height="22.7313" filterUnits="userSpaceOnUse" color-interpolation-filters="sRGB">
<feFlood flood-opacity="0" result="BackgroundImageFix"/>
<feColorMatrix in="SourceAlpha" type="matrix" values="0 0 0 0 0 0 0 0 0 0 0 0 0 0 0 0 0 0 127 0" result="hardAlpha"/>
<feOffset dy="1"/>
<feGaussianBlur stdDeviation="2"/>
<feComposite in2="hardAlpha" operator="out"/>
<feColorMatrix type="matrix" values="0 0 0 0 0.0763868 0 0 0 0 0.0813768 0 0 0 0 0.375789 0 0 0 0.51 0"/>
<feBlend mode="normal" in2="BackgroundImageFix" result="effect1_dropShadow_250_15"/>
<feBlend mode="normal" in="SourceGraphic" in2="effect1_dropShadow_250_15" result="shape"/>
</filter>
<filter id="filter5_d_250_15" x="79.6161" y="118.056" width="82.743" height="35.2021" filterUnits="userSpaceOnUse" color-interpolation-filters="sRGB">
<feFlood flood-opacity="0" result="BackgroundImageFix"/>
<feColorMatrix in="SourceAlpha" type="matrix" values="0 0 0 0 0 0 0 0 0 0 0 0 0 0 0 0 0 0 127 0" result="hardAlpha"/>
<feOffset dy="1"/>
<feGaussianBlur stdDeviation="2"/>
<feComposite in2="hardAlpha" operator="out"/>
<feColorMatrix type="matrix" values="0 0 0 0 0.0763868 0 0 0 0 0.0813768 0 0 0 0 0.375789 0 0 0 0.51 0"/>
<feBlend mode="normal" in2="BackgroundImageFix" result="effect1_dropShadow_250_15"/>
<feBlend mode="normal" in="SourceGraphic" in2="effect1_dropShadow_250_15" result="shape"/>
</filter>
<radialGradient id="paint0_radial_250_15" cx="0" cy="0" r="1" gradientUnits="userSpaceOnUse" gradientTransform="translate(118.643 95.3975) rotate(45.3949) scale(98.3927 93.8662)">
<stop stop-color="#F7FFDC" stop-opacity="0.47"/>
<stop offset="1" stop-color="#00101C" stop-opacity="0"/>
</radialGradient>
<linearGradient id="paint1_linear_250_15" x1="96.3176" y1="133.824" x2="122.122" y2="35.372" gradientUnits="userSpaceOnUse">
<stop offset="0.1184" stop-color="#9DE0E3"/>
<stop offset="1" stop-color="white"/>
</linearGradient>
</defs>
</svg>
