<svg width="56" height="56" viewBox="0 0 56 56" fill="none" xmlns="http://www.w3.org/2000/svg">
<circle cx="28.0605" cy="28.2378" r="26" transform="rotate(-1.93961 28.0605 28.2378)" fill="#00101C" stroke="#3DB8D8"/>
<g clip-path="url(#clip0_212_7585)">
<path d="M20.7039 38.9286C20.7237 39.3151 20.849 39.6888 21.0662 40.009C21.2834 40.3293 21.5843 40.5839 21.9361 40.7451C22.2881 40.9286 22.6816 41.018 23.0784 41.0045C23.4751 40.9911 23.8617 40.8753 24.2005 40.6684L39.9193 30.1947C40.2629 30.0146 40.5488 29.7411 40.7439 29.4058C40.9391 29.0705 41.0356 28.6869 41.0225 28.2991C41.0094 27.9114 40.8871 27.5352 40.6697 27.2138C40.4523 26.8925 40.1486 26.639 39.7936 26.4825L23.4047 17.1705C23.0527 16.987 22.6592 16.8976 22.2624 16.9111C21.8657 16.9245 21.4791 17.0403 21.1403 17.2472C20.8003 17.4318 20.5173 17.7062 20.3222 18.0404C20.1272 18.3746 20.0274 18.7559 20.0338 19.1428L20.7039 38.9286Z" stroke="#3DB8D8" stroke-linecap="round" stroke-linejoin="round"/>
</g>
<defs>
<clipPath id="clip0_212_7585">
<rect width="26" height="26" fill="white" transform="translate(17.1435 16.1003) rotate(-1.93961)"/>
</clipPath>
</defs>
</svg>
